<svg xmlns="http://www.w3.org/2000/svg" version="1" viewBox="0 0 481 481"><g fill="#FFF"><path d="M365 318c-15-16-35-16-51 0l-35 35c-3 4-6 5-10 2-8-4-16-7-23-12a369 369 0 0 1-121-132c-2-4-1-6 2-9l35-35c16-17 16-36 0-53l-28-28-29-28c-16-16-35-16-51 0L19 93a58 58 0 0 0-19 39c-2 25 5 49 13 72a476 476 0 0 0 235 251c27 13 56 24 87 25 21 2 40-4 55-20 10-12 22-22 32-33 16-16 16-36 1-52l-58-57zM346 238l37-6A165 165 0 0 0 243 96l-5 37a127 127 0 0 1 108 105z"/><path d="M404 78C361 35 307 8 248 0l-5 37a236 236 0 0 1 201 195l37-6c-10-57-37-108-77-148z"/></g></svg>